<svg xmlns="http://www.w3.org/2000/svg" viewBox="0 0 200 200">
  <!-- Background -->
  <circle cx="100" cy="100" r="90" fill="#ecf0f1" stroke="#2c3e50" stroke-width="4"/>
  
  <!-- Cell outline (partially visible) -->
  <path d="M30,100 A70,70 0 0,1 100,30 A70,70 0 0,1 170,100" 
        fill="none" stroke="#3498db" stroke-width="2" stroke-dasharray="5 3"/>
  
  <!-- Magnifying glass -->
  <circle cx="75" cy="85" r="30" fill="none" stroke="#2c3e50" stroke-width="5"/>
  <line x1="95" y1="105" x2="125" y2="135" stroke="#2c3e50" stroke-width="8" stroke-linecap="round"/>
  
  <!-- Cell structure under magnification -->
  <circle cx="75" cy="85" r="20" fill="#3498db" fill-opacity="0.2"/>
  <circle cx="75" cy="85" r="8" fill="#2c3e50"/>
  <ellipse cx="65" cy="75" rx="5" ry="3" fill="#27ae60" transform="rotate(-15 65 75)"/>
  
  <!-- Interactive elements -->
  <circle cx="140" cy="70" r="12" fill="#e74c3c">
    <animate attributeName="r" values="10;12;10" dur="2s" repeatCount="indefinite"/>
  </circle>
  <circle cx="160" cy="100" r="8" fill="#f39c12">
    <animate attributeName="r" values="8;10;8" dur="2s" repeatCount="indefinite" begin="0.5s"/>
  </circle>
  <circle cx="140" cy="130" r="10" fill="#2ecc71">
    <animate attributeName="r" values="8;10;8" dur="2s" repeatCount="indefinite" begin="1s"/>
  </circle>
  
  <!-- Connecting lines -->
  <line x1="140" y1="70" x2="160" y2="100" stroke="#2c3e50" stroke-width="2" stroke-dasharray="3 2"/>
  <line x1="160" y1="100" x2="140" y2="130" stroke="#2c3e50" stroke-width="2" stroke-dasharray="3 2"/>
  <line x1="140" y1="130" x2="125" y2="135" stroke="#2c3e50" stroke-width="2" stroke-dasharray="3 2"/>
  
  <!-- Cursor -->
  <path d="M120,40 L130,50 L120,60 Z" fill="#2c3e50" transform="rotate(45 125 50)"/>
</svg>
